<svg xmlns="https://www.w3.org/2000/svg" width="343" height="56" viewBox="0 0 343 56">
    <g fill="none" fill-rule="evenodd">
        <g fill="#E0B0CE" fill-rule="nonzero">
            <g>
                <path d="M324.017 67.7v.768h-2.508v3.384h-.924v-3.384h-2.64v3.384h-.912v-3.384h-2.484V67.7h9.468zm-288.613.48v3.66h-.912v-2.904h-6.084v-.756h6.996zM25.06 61.352V71.84h-.912V61.352h.912zm44.367 0v4.236h1.692v.768h-1.692v5.484h-.912V61.352h.912zm-19.944 0V71.84h-.9V61.352h.9zm284.062 0V71.84h-.912V61.352h.912zm13.719 0V71.84h-.912V61.352h.912zm11.28 4.476v.756h-4.296v1.128h3.156v2.364h-6.348V71h6.732v.756h-7.644v-2.388h6.348v-.912h-6.348v-.744h3.192v-1.128h-4.26v-.756h9.468zM55.699 67.964c2.448 0 3.756.72 3.756 1.896s-1.308 1.884-3.756 1.884c-2.448 0-3.78-.708-3.78-1.884s1.332-1.896 3.78-1.896zm250.582.696v2.088h6.3v.756h-7.212V68.66h.912zM47.407 61.604v9.708h-.888V65.9h-1.86v-.768h1.86v-3.528h.888zm25.661 7.931c.422 0 .762.34.762.762 0 .416-.34.762-.762.762-.416 0-.762-.346-.762-.762 0-.422.346-.762.762-.762zm-17.37-.827c-1.775 0-2.867.432-2.867 1.152 0 .732 1.092 1.152 2.868 1.152 1.752 0 2.856-.42 2.856-1.152 0-.72-1.104-1.152-2.856-1.152zm288.482-6.24c-.048 3.408-2.136 6.012-4.848 7.296l-.528-.72c2.652-1.164 4.212-3.444 4.404-5.808h-4.02v-.768zm-30.543 4.404v.756h-4.296v2.016h-.912v-2.016h-4.26v-.756h9.468zM22.612 62.408v.756h-2.448v1.068c0 1.956 1.332 3.648 2.772 4.428l-.564.684c-.984-.636-2.316-1.956-2.676-3.192-.348 1.308-1.5 2.652-2.712 3.432l-.564-.672c1.536-.9 2.796-2.688 2.796-4.668v-1.08h-2.448v-.756h5.844zm309.325 6.024l.084.744c-.9.108-2.4.204-3.732.264-1.236.06-2.388.096-3.18.108l-.168-.804c.9.012 2.136-.012 3.408-.084 1.464-.048 2.82-.132 3.588-.228zm-267.19-6.156v1.836c0 1.908 1.32 3.624 2.772 4.476l-.576.696c-1.08-.744-2.256-1.992-2.676-3.264-.372 1.308-1.392 2.64-2.628 3.504l-.588-.708c1.524-.936 2.76-2.82 2.76-4.68v-1.86h.936zm-21.228.048v1.884c0 2.04 1.224 3.564 2.364 4.32l-.564.672c-.804-.576-1.908-1.824-2.244-3.012-.228 1.2-1.092 2.568-2.136 3.324l-.564-.684c1.188-.756 2.244-2.544 2.244-4.596v-1.908h.9zm-8.115-.972v6.252h-.912v-6.252h.912zm-4.968.432v1.08c0 1.68 1.476 2.964 2.736 3.396l-.54.72c-1.044-.456-2.208-1.404-2.628-2.484-.324 1.092-1.368 2.172-2.688 2.844l-.564-.732c1.488-.612 2.76-2.04 2.76-3.708v-1.116h.924zm25.359 2.352v2.22h4.656v.756h-9.468v-.756h3.9v-2.22h.912zm272.458-1.968c1.548 0 2.724.96 2.724 2.496 0 1.488-1.212 2.436-2.724 2.436-1.548 0-2.736-1.032-2.736-2.436 0-1.476 1.212-2.496 2.736-2.496zm-5.376-.396v2.712h-6.312v1.284h6.6v.768h-7.512v-2.808h6.312V62.54h-6.288v-.768h7.2zM73.068 65c.422 0 .762.34.762.762 0 .416-.34.761-.762.761-.416 0-.762-.345-.762-.761 0-.422.346-.762.762-.762zm255.185-2.052c-1.008 0-1.848.732-1.848 1.716 0 .972.828 1.668 1.848 1.668.996 0 1.836-.684 1.836-1.668 0-1.056-.816-1.716-1.836-1.716zm-21.984-1.26v1.296h5.244v-1.296h.924v4.008h-7.08v-4.008h.912zm-246.934.24v.936c0 .876-.132 2.148-.3 2.796l-.9-.12c.168-.576.24-1.524.252-2.004l.012-.852h-6.372v-.756h7.308zm294.961-.444v.3c0 1.416 2.124 2.508 3.732 2.652l-.396.768c-1.752-.312-3.324-1.296-3.828-2.292-.408 1.02-1.932 1.992-3.768 2.292l-.408-.756c1.824-.192 3.72-1.26 3.72-2.664v-.3h.948zm-130.634-34.97v3.99h-5.328v.517c2.483 2.331 3.828 5.232 3.828 8.598 0 5.595-3.776 10.153-8.846 11.603l-8.02 2.28c-3.517.983-5.638 2.744-5.638 5.179 0 1.916 1.707 2.797 3.88 2.797 3.802 0 6.635-2.344 9.364-4.688l.653-.561c2.5-2.143 4.972-4.126 8.09-4.126 3.466 0 5.898 2.227 5.898 5.335 0 3.366-3.208 6.008-6.933 6.008-2.897 0-5.846-1.14-7.915-3.626-1.656 3.16-3.984 5.18-7.554 5.18-3.62 0-6.466-2.59-6.466-5.646 0-2.745 1.81-5.076 6.725-6.37l6.157-1.607c-.414.052-.776.052-1.19.052-6.726 0-11.692-5.49-11.692-11.758 0-6.526 5.121-11.706 11.692-11.706 2.431 0 4.863.725 6.777 2.176l6.518-3.626zm87.851 37.226h-5.244v1.188h5.244V63.74zm-91.782-10.55c-3.467 0-5.691 3.885-6.83 6.216 1.76 2.124 4.346 3.574 7.347 3.315 2.638-.207 4.087-1.917 4.294-4.04.259-2.85-1.707-5.49-4.811-5.49zM82.789 27.965c7.398 0 13.193 6.112 13.193 13.105 0 7.562-6.053 13.312-13.09 13.312-7.397 0-13.192-6.112-13.192-13.105 0-7.562 6.053-13.312 13.09-13.312zm72.636 0c4.914 0 8.95 2.227 11.536 6.112H155.27c6.726.57 11.744 4.196 11.744 10.1 0 4.403-3.57 10.205-10.76 10.205-6.726 0-13.917-4.714-13.917-12.846 0-7.977 6.104-13.57 13.089-13.57zm82.516 0c4.915 0 8.95 2.227 11.537 6.112h-11.692c6.725.57 11.744 4.196 11.744 10.1 0 4.403-3.57 10.205-10.761 10.205-6.726 0-13.917-4.714-13.917-12.846 0-7.977 6.105-13.57 13.09-13.57zm-44.13-9.738v32.995l2.794 2.9h-5.897v-4.091c-1.915 2.33-4.967 4.247-8.175 4.247-7.242 0-12.312-5.957-12.312-13.105 0-7.148 5.07-13.104 12.312-13.104 3.208 0 6.26 1.916 8.175 4.247v-10.36l-2.794-1.864 5.898-1.865zM320.666 16c4.242 0 6.673 3.574 6.673 7.614v4.61h4.501v.363h-4.5v18.232c0 5.853 2.12 7.096 4.345 7.096.466 0 .983-.051 1.449-.155l.051.363c-.465.103-.982.103-1.448.103-3.984 0-7.502-2.59-7.502-6.63V28.535h-2.328l-5.277 1.968v20.719l2.794 2.9h-8.691l2.793-2.9V34.077l-2.793-1.76 10.864-3.99c2.225-.828 5.329-2.745 5.329-5.283 0-3.729-2.587-6.733-6.26-6.733-2.432 0-4.915 1.347-6.83 3.677.311-.103.57-.155.88-.155 1.294 0 2.328 1.036 2.328 2.33 0 1.296-1.034 2.332-2.328 2.332-1.293 0-2.328-1.036-2.328-2.331 0-.57.207-1.088.518-1.502 2.276-3.108 5.018-4.662 7.76-4.662zm-21.211 12.069c3.983 0 7.605 3.004 7.605 8.909v14.244l2.793 2.9h-8.691l2.793-2.9V36.771c0-4.714-2.586-8.029-5.897-8.029-2.38 0-4.708 1.865-6.984 4.506.362 1.088.569 2.331.569 3.73v14.244l2.793 2.9h-8.691l2.794-2.9V36.771c0-4.714-2.587-8.029-5.898-8.029-2.328 0-4.605 1.865-6.415 3.885v18.595l2.793 2.9h-8.691l2.794-2.9V32.005l-2.794-1.864 5.898-1.865v3.781c2.328-2.383 4.656-3.988 7.812-3.988 2.897 0 5.639 1.605 6.88 4.765 2.121-2.33 4.708-4.765 8.537-4.765zm-195.402.155l-2.793 2.9 7.087 17.767 5.07-14.089-1.5-3.677-2.794-2.9h9.209l-2.794 2.9 7.088 17.766 6.363-17.766-2.793-2.9h6.156l-2.794 2.9-6.725 18.647v4.35h-1.707l-7.398-18.698-5.174 14.4v4.299h-1.707l-9.26-22.998-2.794-2.9h9.26zm34.145-9.841v32.839l2.794 2.9h-8.692l2.794-2.9v-29.11l-2.794-1.865 5.898-1.864zm-80.913 9.686c4.346 0 8.536 3.004 8.536 8.96v14.193l2.794 2.9h-8.691l2.793-2.9v-14.4c0-4.817-3.31-8.028-6.932-8.028-2.535 0-4.656 1.606-6.777 3.833v18.595l2.793 2.9H43.11l2.794-2.9V32.005l-2.794-1.864 5.898-1.865v3.781c2.69-2.538 4.914-3.988 8.277-3.988zm208.853.155l1.345 5.853-5.33-4.765c-1.24-.57-2.327-.777-3.517-.777-2.949 0-5.743 1.502-5.743 3.885 0 2.952 4.605 5.283 7.192 6.37 3.724 1.606 8.794 3.42 8.794 9.169 0 3.73-3.414 6.164-7.553 6.164h-8.64l-1.345-6.06 5.536 4.868c1.293.518 3.104.88 4.45.88 3.569 0 6.725-1.864 6.725-4.66 0-3.109-4.812-5.284-8.123-6.838-2.845-1.243-7.812-4.04-7.812-8.391 0-3.885 3.053-5.698 6.519-5.698h7.502zM24.69 17.864l-2.793 2.901v20.978C23.295 34.181 28.83 26.36 35.4 20.662l-1.448-2.797h7.036l-5.174 2.952c-2.897 2.486-5.225 4.973-6.984 7.355l10.916 23.154 2.69 2.797h-8.07l1.81-2.694-9.519-20.149c-2.897 4.714-4.76 9.116-4.76 14.866v5.076l2.794 2.9H16l2.794-2.9V20.765L16 17.865h8.691zm318.22.363c3.155 0 5.742 2.487 5.742 5.646 0 1.865-.931 3.419-2.483 4.403 4.811-.673 10.036 2.279 10.036 8.96v13.986l2.794 2.9h-8.691l2.793-2.9V37.03c0-4.818-3.362-8.133-7.036-8.133-2.38 0-4.035 1.244-6.156 3.212v19.113l2.794 2.9h-8.692l2.794-2.9V26.049c0-5.025 2.897-7.822 6.105-7.822zM182.533 28.535c-4.5 0-8.587 5.75-8.587 12.638 0 6.89 4.087 12.639 8.587 12.639 3.156 0 6.312-1.865 8.175-4.455V32.99c-1.863-2.59-5.019-4.454-8.175-4.454zm-101.761.259c-4.501 0-7.916 3.885-7.916 9.738 0 7.562 5.846 15.02 12.054 15.02 4.501 0 7.916-3.884 7.916-9.737 0-7.562-5.846-15.021-12.054-15.021zm154.945 5.283h-6.312c-.983 1.71-1.449 3.678-1.449 5.75 0 6.837 5.174 12.949 11.382 12.949 6.053 0 9.623-4.196 9.623-8.754 0-5.49-4.915-9.945-13.244-9.945zm-82.517 0h-6.312c-.983 1.71-1.448 3.678-1.448 5.75 0 6.837 5.173 12.949 11.381 12.949 6.053 0 9.623-4.196 9.623-8.754 0-5.49-4.915-9.945-13.244-9.945zm54.839-5.076c-4.087-.052-6.881 3.315-6.881 7.77 0 7.458 6.053 13.622 11.692 13.622 4.035 0 6.829-3.211 6.829-7.821 0-6.268-5.536-13.467-11.64-13.57zm-52.356-.052c-3.673 0-6.415 1.813-8.484 4.766h15.52c-1.086-3.264-3.983-4.766-7.036-4.766zm82.517 0c-3.673 0-6.415 1.813-8.485 4.766h15.52c-1.086-3.264-3.983-4.766-7.035-4.766zm105.745-10.048c-2.12 0-4.035 2.072-4.035 6.37v6.32c1.552-1.399 3-2.435 4.915-3.056 2.224-.829 3.466-2.538 3.466-4.662 0-2.693-2.07-4.972-4.346-4.972z" transform="translate(-16 -106) translate(0 90)"/>
            </g>
        </g>
    </g>
</svg>
