<svg xmlns="http://www.w3.org/2000/svg" width="224" height="32" viewBox="0 0 224 32">
    <g fill="none" fill-rule="evenodd">
        <g fill="#E0B0CE" fill-rule="nonzero">
            <path d="M81.676 36.896l-1.824-1.894v-3.315c0-3.755 1.216-6.63 3.108-9.708l6.216 13.158-1.182 1.76h5.27l-1.756-1.827-7.13-15.12c1.15-1.557 2.67-3.18 4.562-4.804l3.379-1.928h-4.595l.946 1.826c-4.291 3.721-7.906 8.83-8.818 13.768v-13.7l1.824-1.894H76l1.824 1.894v19.89L76 36.896h5.676zm17.704 0l-1.825-1.894V22.858c1.386-1.454 2.77-2.503 4.426-2.503 2.365 0 4.528 2.097 4.528 5.243v9.404l-1.825 1.894h5.676l-1.824-1.894v-9.268c0-3.89-2.737-5.852-5.575-5.852-2.196 0-3.649.947-5.406 2.604v-2.47l-3.851 1.219 1.824 1.217v12.55l-1.824 1.894h5.676zm20.305.17c4.595 0 8.548-3.755 8.548-8.694 0-4.567-3.784-8.558-8.616-8.558-4.594 0-8.547 3.755-8.547 8.693 0 4.567 3.784 8.559 8.615 8.559zm1.318-.542c-4.055 0-7.872-4.87-7.872-9.81 0-3.822 2.23-6.359 5.169-6.359 4.054 0 7.872 4.871 7.872 9.81 0 3.822-2.23 6.36-5.17 6.36zm15.44.372V34.09l3.378-9.404 4.832 12.211h1.115v-2.841l4.392-12.178 1.824-1.894h-4.02l1.824 1.894-4.155 11.603-4.63-11.603 1.825-1.894h-6.014l1.825 1.894.98 2.402-3.311 9.2-4.629-11.602 1.824-1.894h-6.047l1.824 1.894 6.048 15.02h1.115zm21.184 0l-1.825-1.894V13.556l-3.851 1.218 1.824 1.218v19.01l-1.824 1.894h5.676zm9.966.17c4.697 0 7.028-3.789 7.028-6.664 0-3.857-3.277-6.224-7.67-6.597h7.636c-1.69-2.537-4.325-3.991-7.534-3.991-4.561 0-8.548 3.653-8.548 8.863 0 5.31 4.696 8.389 9.088 8.389zm4.224-13.497H161.68c1.351-1.928 3.142-3.112 5.54-3.112 1.994 0 3.886.98 4.596 3.112zm-3.852 12.448c-4.054 0-7.433-3.992-7.433-8.457 0-1.353.304-2.638.946-3.755h4.122c5.44 0 8.65 2.91 8.65 6.495 0 2.977-2.332 5.717-6.285 5.717zm16.792.98c2.094 0 4.088-1.25 5.338-2.773v2.672h3.851l-1.824-1.894V13.455l-3.852 1.217 1.825 1.218v6.765c-1.25-1.522-3.244-2.773-5.338-2.773-4.73 0-8.041 3.89-8.041 8.558 0 4.668 3.31 8.558 8.04 8.558zm0-.304c-2.94 0-5.609-3.754-5.609-8.253 0-4.5 2.67-8.254 5.609-8.254 2.06 0 4.121 1.218 5.338 2.91v10.688c-1.217 1.692-3.278 2.91-5.338 2.91zM199.52 44c2.331 0 3.852-1.32 4.933-3.383 1.351 1.624 3.277 2.368 5.169 2.368 2.433 0 4.527-1.725 4.527-3.924 0-2.03-1.588-3.484-3.851-3.484-4.426 0-6.859 6.123-11.825 6.123-1.42 0-2.534-.575-2.534-1.827 0-1.59 1.385-2.74 3.682-3.383l5.237-1.488c3.311-.947 5.778-3.924 5.778-7.577 0-2.199-.879-4.093-2.5-5.615v-.339h3.48v-2.604l-4.258 2.368c-1.25-.947-2.838-1.421-4.426-1.421-4.29 0-7.635 3.383-7.635 7.645 0 4.093 3.243 7.678 7.635 7.678.27 0 .507 0 .777-.033l-4.02 1.048c-3.21.846-4.392 2.368-4.392 4.16 0 1.997 1.858 3.688 4.223 3.688zm5.034-9.54c-3.683 0-7.636-4.024-7.636-8.896 0-2.909 1.825-5.107 4.494-5.074 3.987.068 7.602 4.77 7.602 8.863 0 3.01-1.825 5.108-4.46 5.108zm.034 5.887c.743-1.522 2.196-4.06 4.46-4.06 2.027 0 3.31 1.726 3.142 3.586-.135 1.387-1.081 2.503-2.805 2.639-1.96.169-3.648-.778-4.797-2.165zm16.893-3.281c4.696 0 7.027-3.789 7.027-6.664 0-3.857-3.277-6.224-7.67-6.597h7.636c-1.689-2.537-4.324-3.991-7.534-3.991-4.56 0-8.548 3.653-8.548 8.863 0 5.31 4.697 8.389 9.089 8.389zm4.223-13.497h-10.136c1.352-1.928 3.142-3.112 5.541-3.112 1.993 0 3.885.98 4.595 3.112zm-3.852 12.448c-4.054 0-7.432-3.992-7.432-8.457 0-1.353.304-2.638.946-3.755h4.121c5.44 0 8.65 2.91 8.65 6.495 0 2.977-2.332 5.717-6.285 5.717zm14.36.88c2.702 0 4.932-1.59 4.932-4.026 0-3.755-3.31-4.939-5.743-5.987-1.69-.71-4.697-2.233-4.697-4.161 0-1.556 1.825-2.537 3.75-2.537.778 0 1.487.135 2.298.507l3.48 3.112-.879-3.822h-4.898c-2.264 0-4.258 1.184-4.258 3.721 0 2.841 3.244 4.668 5.102 5.48 2.162 1.015 5.305 2.435 5.305 4.465 0 1.827-2.061 3.044-4.393 3.044-.878 0-2.06-.236-2.905-.575l-3.615-3.18.878 3.958h5.642zm11.554 0l-1.824-1.895V22.858c1.182-1.319 2.669-2.537 4.19-2.537 2.161 0 3.85 2.165 3.85 5.243v9.438l-1.824 1.894h5.676l-1.824-1.894V25.7c0-.914-.135-1.725-.372-2.436 1.487-1.725 3.007-2.943 4.561-2.943 2.163 0 3.852 2.165 3.852 5.243v9.438l-1.825 1.894h5.676l-1.824-1.894V25.7c0-3.856-2.365-5.818-4.966-5.818-2.5 0-4.19 1.59-5.575 3.112-.811-2.064-2.602-3.112-4.494-3.112-2.06 0-3.581 1.048-5.101 2.604v-2.47l-3.852 1.219 1.825 1.217v12.55l-1.825 1.894h5.676zm35.374 0l-.034-.237c-.304.067-.642.101-.946.101-1.453 0-2.838-.812-2.838-4.634V20.22h2.94v-.237h-2.94v-3.01c0-2.639-1.588-4.973-4.358-4.973-1.79 0-3.582 1.015-5.068 3.044-.203.271-.338.61-.338.981 0 .846.676 1.523 1.52 1.523.845 0 1.52-.677 1.52-1.523 0-.845-.675-1.522-1.52-1.522-.202 0-.371.034-.574.102 1.25-1.523 2.872-2.402 4.46-2.402 2.398 0 4.088 1.962 4.088 4.397 0 1.658-2.027 2.91-3.48 3.45l-7.095 2.605 1.824 1.15v11.197l-1.824 1.894h5.676l-1.825-1.894v-13.53l3.447-1.286h1.52v12.448c0 2.639 2.297 4.33 4.899 4.33.304 0 .642 0 .946-.068zm6.216 0l-1.824-1.895V22.52c1.385-1.285 2.466-2.097 4.02-2.097 2.4 0 4.595 2.165 4.595 5.31v9.27l-1.824 1.893H300l-1.824-1.894V25.87c0-4.364-3.413-6.292-6.555-5.852 1.014-.643 1.622-1.658 1.622-2.875 0-2.064-1.69-3.687-3.75-3.687-2.095 0-3.987 1.826-3.987 5.107v16.44l-1.825 1.894h5.676zm-1.824-14.715v-4.127c0-2.808 1.25-4.16 2.635-4.16 1.487 0 2.838 1.488 2.838 3.247 0 1.387-.81 2.503-2.263 3.044-1.25.406-2.196 1.082-3.21 1.996z" transform="translate(-76 -12)"/>
        </g>
    </g>
</svg>
