<svg xmlns="https://www.w3.org/2000/svg" width="27" height="5" viewBox="0 0 27 5">
    <g fill="none" fill-rule="evenodd">
        <g fill="#E0B0CE" fill-rule="nonzero">
            <path d="M177.815 384l.677-.492-.984-1.6 1.677-.693-.262-.784-1.754.415-.154-1.846h-.83l-.154 1.862-1.754-.431-.277.784 1.677.693-.97 1.6.678.492 1.215-1.462 1.215 1.462zm10.482 0l.677-.492-.985-1.6 1.677-.693-.262-.784-1.753.415-.154-1.846h-.831l-.154 1.862-1.754-.431-.277.784 1.677.693-.969 1.6.677.492 1.215-1.462 1.216 1.462zm10.481 0l.677-.492-.985-1.6 1.677-.693-.261-.784-1.754.415-.154-1.846h-.83l-.155 1.862-1.753-.431-.277.784 1.677.693-.97 1.6.677.492 1.216-1.462 1.215 1.462z" transform="translate(-174 -379)"/>
        </g>
    </g>
</svg>
